<svg width="50" height="50" viewBox="0 0 50 50" fill="none" xmlns="http://www.w3.org/2000/svg">
<path d="M16.8506 38.2717C16.8379 38.2092 16.8193 38.1477 16.7949 38.0881C16.7705 38.0295 16.7402 37.9729 16.7051 37.9202C16.6699 37.8665 16.6289 37.8166 16.584 37.7717C16.5391 37.7268 16.4893 37.6858 16.4355 37.6506C16.3828 37.6155 16.3262 37.5852 16.2666 37.5608C16.208 37.5364 16.1465 37.5168 16.084 37.5051C15.958 37.4797 15.8281 37.4797 15.7031 37.5051C15.6406 37.5168 15.5791 37.5364 15.5195 37.5608C15.4609 37.5852 15.4043 37.6155 15.3516 37.6506C15.2979 37.6858 15.248 37.7268 15.2031 37.7717C15.1582 37.8166 15.1172 37.8665 15.082 37.9202C15.0459 37.9729 15.0166 38.0295 14.9922 38.0881C14.9678 38.1477 14.9482 38.2092 14.9365 38.2717C14.9238 38.3342 14.917 38.3987 14.917 38.4622C14.917 38.5256 14.9238 38.5901 14.9365 38.6526C14.9482 38.7151 14.9678 38.7766 14.9922 38.8352C15.0166 38.8948 15.0459 38.9514 15.082 39.0041C15.1172 39.0579 15.1582 39.1077 15.2031 39.1526C15.248 39.1975 15.2979 39.2385 15.3516 39.2737C15.4043 39.3089 15.4609 39.3392 15.5195 39.3636C15.5791 39.388 15.6406 39.4076 15.7031 39.4193C15.7656 39.432 15.8301 39.4388 15.8936 39.4388C15.957 39.4388 16.0215 39.432 16.084 39.4193C16.1465 39.4076 16.208 39.388 16.2666 39.3636C16.3262 39.3392 16.3828 39.3088 16.4355 39.2737C16.4893 39.2385 16.5391 39.1975 16.584 39.1526C16.6289 39.1077 16.6699 39.0579 16.7051 39.0041C16.7402 38.9514 16.7705 38.8948 16.7949 38.8352C16.8193 38.7766 16.8379 38.7151 16.8506 38.6526C16.8633 38.5901 16.8701 38.5256 16.8701 38.4622C16.8701 38.3987 16.8633 38.3342 16.8506 38.2717Z" fill="white"/>
<path d="M44.9212 38.5725C44.9174 38.5627 44.9135 38.5531 44.9094 38.5435C44.0105 36.4403 41.9025 35.6629 39.4078 36.515L32.6043 38.3964C32.2109 37.2052 31.2298 36.1916 29.8425 35.6767C29.8339 35.6736 29.8253 35.6705 29.8166 35.6675L22.338 33.1292C21.7155 32.3247 19.7657 30.2659 16.115 30.2659C13.5638 30.2659 11.3068 32.0161 10.0156 33.9238H0.976562C0.437207 33.9238 0 34.361 0 34.9003V47.2125C0 47.7519 0.437207 48.1891 0.976562 48.1891H6.78291C7.32227 48.1891 7.75947 47.7519 7.75947 47.2125V46.3694H10.4824C11.0218 46.3694 11.459 45.9322 11.459 45.3928V45.1118C13.0463 45.2502 13.5684 45.5513 15.0262 46.3919C16.1473 47.0384 17.8417 48.0155 20.8931 49.3875C20.9072 49.3938 20.9216 49.3999 20.9359 49.4055C21.5216 49.6359 22.6664 49.9978 24.0778 49.9978C25.0603 49.9978 26.1721 49.8223 27.3133 49.305L42.3515 43.9207C42.3782 43.9111 42.4046 43.9003 42.4304 43.8884C43.8676 43.2272 46.0093 41.3636 44.9212 38.5725ZM5.80635 46.2359H1.95312V35.8768H5.80635V46.2359ZM9.50586 44.4162H7.75947V35.8768H9.50586V44.4162ZM41.65 42.0971L26.6186 47.4791C26.6054 47.4837 26.5875 47.4908 26.5745 47.496C26.5613 47.5014 26.5481 47.5071 26.5352 47.513C24.4417 48.4751 22.4518 47.8992 21.6719 47.5959C18.7244 46.2697 17.1513 45.3625 16.0019 44.6998C14.4038 43.7783 13.6338 43.3341 11.459 43.1545V35.2891C12.3847 33.7719 14.1798 32.2189 16.1151 32.2189C19.4341 32.2189 20.8404 34.3776 20.8957 34.4647C21.0149 34.6586 21.1982 34.8048 21.4138 34.878L29.175 37.5122C30.4146 37.9774 31.0696 39.0389 30.7686 40.0975C30.6296 40.5864 30.3085 40.9918 29.8645 41.2392C29.4244 41.4844 28.9156 41.5451 28.4307 41.4109L19.6813 38.6382C19.1669 38.4752 18.6183 38.76 18.4554 39.2742C18.2924 39.7883 18.5771 40.3372 19.0913 40.5001L27.8559 43.2776C27.8651 43.2805 27.8744 43.2833 27.8838 43.286C28.2337 43.3855 28.5899 43.4347 28.944 43.4347C29.5923 43.4347 30.2334 43.2696 30.8152 42.9454C31.7149 42.4441 32.3655 41.6224 32.6472 40.6317C32.6696 40.5526 32.6896 40.4735 32.7068 40.3944L40.0392 38.3631C41.0981 38.0014 42.4883 37.871 43.1072 39.2965C43.7479 40.9701 42.0828 41.8907 41.65 42.0971Z" fill="white"/>
<path d="M35.0645 12.8459C35.0518 12.7834 35.0332 12.7219 35.0078 12.6624C34.9834 12.6038 34.9541 12.5471 34.918 12.4944C34.8828 12.4407 34.8418 12.3909 34.7969 12.3459C34.752 12.301 34.7021 12.26 34.6484 12.2249C34.5957 12.1897 34.5391 12.1594 34.4805 12.135C34.4209 12.1106 34.3594 12.0911 34.2979 12.0793C34.1719 12.054 34.042 12.054 33.916 12.0793C33.8535 12.0911 33.792 12.1106 33.7334 12.135C33.6738 12.1594 33.6172 12.1897 33.5645 12.2249C33.5107 12.26 33.4609 12.301 33.416 12.3459C33.3711 12.3909 33.3301 12.4407 33.2949 12.4944C33.2598 12.5471 33.2295 12.6038 33.2051 12.6624C33.1807 12.7219 33.1611 12.7834 33.1494 12.8459C33.1367 12.9084 33.1299 12.9729 33.1299 13.0364C33.1299 13.0999 33.1367 13.1643 33.1494 13.2268C33.1611 13.2893 33.1807 13.3508 33.2051 13.4094C33.2295 13.469 33.2598 13.5256 33.2949 13.5784C33.3301 13.6321 33.3711 13.6819 33.416 13.7268C33.4609 13.7717 33.5107 13.8127 33.5645 13.8479C33.6172 13.8831 33.6738 13.9133 33.7334 13.9377C33.792 13.9622 33.8535 13.9807 33.916 13.9934C33.9785 14.0061 34.043 14.0129 34.1064 14.0129C34.1699 14.0129 34.2344 14.0061 34.2979 13.9934C34.3594 13.9807 34.4209 13.9622 34.4805 13.9377C34.5391 13.9133 34.5957 13.8831 34.6484 13.8479C34.7021 13.8127 34.752 13.7717 34.7969 13.7268C34.8418 13.6819 34.8828 13.6321 34.918 13.5784C34.9541 13.5256 34.9834 13.469 35.0078 13.4094C35.0332 13.3508 35.0518 13.2893 35.0645 13.2268C35.0771 13.1643 35.083 13.0999 35.083 13.0364C35.083 12.9729 35.0771 12.9084 35.0645 12.8459Z" fill="white"/>
<path d="M49.0235 3.30972H43.2171C42.6778 3.30972 42.2406 3.74692 42.2406 4.28628V5.12944H39.5176C38.9783 5.12944 38.5411 5.56665 38.5411 6.10601V6.38706C36.9538 6.24849 36.4317 5.94751 34.974 5.10688C33.8529 4.4604 32.1584 3.48335 29.107 2.11138C29.0928 2.10493 29.0786 2.09897 29.064 2.09331C28.0708 1.70249 25.4675 0.933545 22.6872 2.1936L18.7575 3.60063L15.4451 0.28833C15.0637 -0.0930176 14.4454 -0.0930176 14.064 0.28833L3.18921 11.163C2.83745 11.5149 2.76997 12.125 3.18921 12.5442L21.7719 31.1269C22.0693 31.4244 22.7656 31.5143 23.1531 31.1269L33.0813 21.1988C33.3394 21.221 33.6073 21.2331 33.8849 21.2331C36.4363 21.2331 38.6931 19.4829 39.9842 17.5752H49.0235C49.5628 17.5752 50 17.138 50 16.5987V4.28628C50 3.74692 49.5628 3.30972 49.0235 3.30972ZM14.7544 2.35991L16.9802 4.58569C16.3186 4.99487 15.5537 5.21382 14.7544 5.21382C13.9551 5.21382 13.1903 4.99497 12.5287 4.58569L14.7544 2.35991ZM7.48667 14.0794L5.26089 11.8536L7.48667 9.62778C7.89585 10.2894 8.1148 11.0543 8.1148 11.8536C8.1148 12.6528 7.89595 13.4177 7.48667 14.0794ZM22.4626 29.0552L20.2372 26.8298C21.5958 25.9914 23.3291 25.9914 24.6878 26.8298L22.4626 29.0552ZM26.0949 25.423C23.9369 23.8576 20.9882 23.8576 18.8302 25.423L8.89361 15.4863C9.6562 14.4375 10.0679 13.1776 10.0679 11.8536C10.0679 10.5294 9.6563 9.26968 8.89361 8.22085L11.1218 5.99272C12.1707 6.75532 13.4304 7.16704 14.7545 7.16704C16.0787 7.16704 17.3384 6.75532 18.3873 5.99272L20.4995 8.10493C20.0437 8.17222 19.5993 8.32241 19.1848 8.55337C18.4848 8.94341 17.9356 9.52749 17.5936 10.2341C16.492 10.4381 15.4722 10.9714 14.6722 11.7713C12.5018 13.9418 12.5018 17.4734 14.6723 19.6439C15.7575 20.7291 17.183 21.2717 18.6085 21.2717C20.034 21.2717 21.4596 20.7292 22.5449 19.6439C23.2509 18.9378 23.7456 18.0701 23.9933 17.1244L27.2906 18.2434C26.9194 19.9629 27.2996 21.7719 28.3251 23.1928L26.0949 25.423ZM20.1576 15.8221C20.1662 15.8252 20.1748 15.8284 20.1834 15.8313L22.1362 16.4941C21.9887 17.1596 21.655 17.7715 21.1638 18.2628C19.7548 19.6716 17.4623 19.6718 16.0535 18.2628C14.6445 16.854 14.6445 14.5615 16.0535 13.1525C16.3933 12.8125 16.7944 12.5467 17.2314 12.3666C17.4117 13.8667 18.4918 15.204 20.1576 15.8221ZM29.7322 21.7856C29.3552 21.1713 29.1419 20.4703 29.1083 19.7547C29.576 20.0929 30.1477 20.4243 30.8305 20.6873L29.7322 21.7856ZM38.541 16.2093C37.6154 17.7267 35.8203 19.2797 33.8849 19.2797C33.5228 19.2797 33.1835 19.254 32.8662 19.2081C32.8649 19.2079 32.8636 19.2077 32.8624 19.2075C30.7534 18.9011 29.6189 17.7025 29.245 17.2279C29.225 17.1986 29.1402 17.0875 29.1276 17.0691C29.0138 16.8658 28.8273 16.7023 28.5894 16.6215L20.825 13.9863C19.5859 13.5212 18.9309 12.4602 19.2311 11.402C19.2313 11.4013 19.2315 11.4006 19.2317 11.4C19.232 11.3992 19.2322 11.3983 19.2324 11.3975C19.3719 10.9102 19.6924 10.506 20.1354 10.2592C20.5754 10.014 21.0841 9.95317 21.5693 10.0876L30.3186 12.8602C30.8329 13.0234 31.3817 12.7384 31.5446 12.2243C31.7075 11.7101 31.4228 11.1613 30.9086 10.9983L23.9501 8.79321L23.8894 8.73247C23.8888 8.73188 23.8882 8.7312 23.8876 8.73062L20.285 5.12808L23.3815 4.01929C23.3919 4.01548 23.4048 4.01069 23.4152 4.00649C23.4178 4.00542 23.4229 4.00347 23.4254 4.00239C23.4387 3.99702 23.4518 3.99136 23.4648 3.9854C25.5582 3.02329 27.548 3.59917 28.328 3.90249C31.2755 5.22876 32.8488 6.13589 33.9982 6.79868C35.5962 7.72026 36.3663 8.16431 38.541 8.3439V16.2093ZM42.2406 15.6219H40.4942V7.08257H42.2406V15.6219ZM48.0469 15.6219H44.1937V5.26284H48.0469V15.6219Z" fill="white"/>
</svg>
