<svg width="50" height="50" viewBox="0 0 50 50" fill="none" xmlns="http://www.w3.org/2000/svg">
<g clip-path="url(#clip0)">
<path d="M47.9457 10.4301H8.85179L8.27067 3.95631C8.17563 2.89762 7.28836 2.08643 6.22547 2.08643H2.05342C0.919344 2.08643 0 3.00577 0 4.13984C0 5.27391 0.919344 6.19326 2.05342 6.19326H4.34816C5.60221 20.1645 2.36114 -15.946 6.70988 32.5052C6.87748 34.4016 7.90213 36.4594 9.66729 37.8577C6.48479 41.9219 9.39262 47.9135 14.5695 47.9135C18.8662 47.9135 21.8967 43.6281 20.4233 39.5694H31.6619C30.1903 43.6229 33.2143 47.9135 37.5157 47.9135C40.9484 47.9135 43.7412 45.1208 43.7412 41.688C43.7412 38.2553 40.9484 35.4626 37.5157 35.4626H14.5834C13.0235 35.4626 11.6643 34.5215 11.0776 33.1504L43.8939 31.2218C44.7898 31.1692 45.5478 30.5406 45.7656 29.67L49.9379 12.9816C50.2614 11.6875 49.2818 10.4301 47.9457 10.4301ZM14.5695 43.8067C13.4014 43.8067 12.4509 42.8562 12.4509 41.688C12.4509 40.5198 13.4014 39.5694 14.5695 39.5694C15.7377 39.5694 16.6881 40.5198 16.6881 41.688C16.6881 42.8562 15.7377 43.8067 14.5695 43.8067ZM37.5156 43.8067C36.3474 43.8067 35.397 42.8562 35.397 41.688C35.397 40.5198 36.3474 39.5694 37.5156 39.5694C38.6838 39.5694 39.6343 40.5198 39.6343 41.688C39.6343 42.8562 38.6838 43.8067 37.5156 43.8067ZM42.1471 27.2106L10.5248 29.0689L9.22043 14.5369H45.3158L42.1471 27.2106Z" fill="white"/>
</g>
<defs>
<clipPath id="clip0">
<rect width="50" height="50" fill="white"/>
</clipPath>
</defs>
</svg>
