<svg width="50" height="50" viewBox="0 0 50 50" fill="none" xmlns="http://www.w3.org/2000/svg">
<g clip-path="url(#clip0)">
<path d="M12.4665 3.63363C12.0017 3.23655 11.3155 3.24192 10.8569 3.64613L7.50337 6.64717V6.25389C7.50337 5.79373 7.1304 5.42076 6.67025 5.42076C6.21009 5.42076 5.83712 5.79373 5.83712 6.25389V8.13934L4.44815 9.38244C4.11042 9.69048 4.08396 10.2131 4.38888 10.5538C4.6938 10.8944 5.21615 10.9257 5.55954 10.6239L11.6691 5.155L17.7787 10.6239C17.9999 10.8257 18.3126 10.8933 18.5974 10.8008C18.8823 10.7083 19.0955 10.4701 19.156 10.1767C19.2166 9.88341 19.115 9.58015 18.8901 9.38244L12.4665 3.63363Z" fill="white"/>
<path d="M16.6686 11.6694C16.2085 11.6694 15.8355 12.0424 15.8355 12.5026V18.3347H7.50381V12.5026C7.50381 12.0424 7.13084 11.6694 6.67068 11.6694C6.21052 11.6694 5.83755 12.0424 5.83755 12.5026V18.8638C5.84576 19.4999 6.36791 20.0089 7.00401 20.001H16.3354C16.9719 20.0075 17.4935 19.4977 17.5018 18.8612V12.5026C17.5017 12.0424 17.1287 11.6694 16.6686 11.6694Z" fill="white"/>
<path d="M11.6696 21.6676C8.44864 21.6676 5.83755 24.2788 5.83755 27.4997C5.83755 30.7206 8.44873 33.3318 11.6696 33.3318C14.8906 33.3318 17.5017 30.7206 17.5017 27.4997C17.498 24.2802 14.8891 21.6712 11.6696 21.6676ZM7.50381 27.4997C7.50635 25.5208 8.89815 23.8158 10.8364 23.4172V27.0273L7.75376 28.8761C7.59237 28.4349 7.50781 27.9694 7.50381 27.4997ZM8.61237 30.3047L11.5405 28.5478L13.9633 30.9706C12.2612 32.1061 9.98416 31.8227 8.61237 30.3047ZM15.1414 29.7926L12.5028 27.1547V23.4172C13.8591 23.6921 14.99 24.6237 15.5192 25.9025C16.0484 27.1812 15.9069 28.6395 15.1414 29.7926Z" fill="white"/>
<path d="M44.996 15.002V12.15C44.9955 11.4246 44.4076 10.8366 43.6821 10.8361H41.311C40.5855 10.8366 39.9976 11.4246 39.9971 12.15V15.002H38.3307V9.77804C38.3298 8.9824 37.6851 8.33761 36.8893 8.33664H34.7731C33.9775 8.33761 33.3327 8.9824 33.3318 9.77804V15.002H31.6655V5.83715C31.6655 4.91684 30.9195 4.1708 29.9991 4.1708H28.3328C27.4125 4.1708 26.6664 4.91684 26.6664 5.83715V15.002H25.8333C25.3731 15.002 25.0002 14.6289 25.0002 14.1688V4.1709C25.0002 3.71074 24.6271 3.33777 24.1671 3.33777C23.707 3.33777 23.3339 3.71074 23.3339 4.1709V14.1688C23.3339 15.5492 24.4529 16.6683 25.8334 16.6683H44.9961C45.4563 16.6683 45.8293 16.2953 45.8293 15.8352C45.8293 15.375 45.4562 15.002 44.996 15.002ZM29.9991 15.002H28.3328V5.83715H29.9991V15.002ZM36.6645 15.002H34.9981V10.003H36.6645V15.002ZM43.3297 15.002H41.6634V12.5025H43.3298V15.002H43.3297Z" fill="white"/>
<path d="M44.996 31.6653H25.8333C25.3731 31.6653 25.0002 31.2923 25.0002 30.8322V29.5108L27.7438 26.7672C28.0729 26.4512 28.5927 26.4512 28.9218 26.7672L29.8983 27.7436C30.8744 28.7194 32.4565 28.7194 33.4325 27.7436L36.9085 24.2677C37.2376 23.9517 37.7574 23.9517 38.0865 24.2677L39.063 25.245C40.0401 26.2181 41.6201 26.2181 42.5972 25.245L45.585 22.2573C45.9007 21.9304 45.8962 21.4107 45.5748 21.0893C45.2534 20.7679 44.7338 20.7634 44.4069 21.0792L41.4191 24.0661C41.0938 24.3913 40.5664 24.3913 40.2411 24.0661L39.2646 23.0896C38.2756 22.1457 36.7193 22.1457 35.7304 23.0896L32.2544 26.5656C31.9291 26.8908 31.4017 26.8908 31.0764 26.5656L30.1008 25.5891C29.1115 24.6451 27.5549 24.6451 26.5657 25.5891L25.0002 27.1546V20.8342C25.0002 20.3741 24.6271 20.0011 24.1671 20.0011C23.707 20.0011 23.3339 20.3742 23.3339 20.8342V30.8322C23.3339 32.2125 24.4529 33.3316 25.8334 33.3316H44.9961C45.4563 33.3316 45.8293 32.9586 45.8293 32.4985C45.8292 32.0383 45.4562 31.6653 44.996 31.6653Z" fill="white"/>
<path d="M49.9949 38.7089V4.6251C50.1108 2.20236 48.2508 0.139694 45.829 0.00524902H4.17107C1.7493 0.139792 -0.110665 2.20245 0.00522935 4.6251V38.7089C-0.111055 41.1319 1.74891 43.1951 4.17107 43.3296H17.5016V44.996H14.169C12.3285 44.996 10.8364 46.4881 10.8364 48.3286V49.1617C10.8364 49.6219 11.2094 49.9949 11.6695 49.9949H38.3307C38.7909 49.9949 39.1638 49.6219 39.1638 49.1617V48.3286C39.1638 46.4881 37.6717 44.996 35.8312 44.996H32.4986V43.3296H45.8291C48.2512 43.1952 50.1112 41.1319 49.9949 38.7089ZM35.8311 46.6623C36.7514 46.6623 37.4975 47.4084 37.4975 48.3287H12.5026C12.5026 47.4084 13.2487 46.6623 14.169 46.6623H35.8311ZM19.168 44.996V43.3296H30.8322V44.996H19.168ZM45.829 41.6634H4.17107C2.67128 41.5257 1.55891 40.2108 1.67158 38.709V36.6644H48.3286V38.709C48.4413 40.2108 47.3289 41.5257 45.829 41.6634ZM48.3285 4.6251V34.998H1.67158V4.6251C1.55891 3.12336 2.67138 1.80878 4.17107 1.67151H45.8291C47.3287 1.80878 48.4413 3.12336 48.3285 4.6251Z" fill="white"/>
</g>
<defs>
<clipPath id="clip0">
<rect width="50" height="50" fill="white"/>
</clipPath>
</defs>
</svg>
