<svg width="24" height="24" viewBox="0 0 24 24" fill="none" xmlns="http://www.w3.org/2000/svg">
<g clip-path="url(#clip0)">
<path d="M23.9765 7.05607C23.9203 5.78085 23.7141 4.90416 23.4186 4.14449C23.1139 3.33812 22.6451 2.61617 22.0308 2.01602C21.4306 1.40652 20.7039 0.932921 19.9069 0.632936C19.1428 0.337529 18.2707 0.131312 16.9955 0.0750879C15.7108 0.0141019 15.3029 0 12.0445 0C8.78602 0 8.37816 0.0141019 7.09819 0.0703262C5.82297 0.126551 4.94627 0.332951 4.18679 0.628174C3.38023 0.932922 2.65829 1.40176 2.05813 2.01602C1.44864 2.61617 0.97522 3.34288 0.675051 4.13991C0.379644 4.90416 0.173427 5.77609 0.117202 7.0513C0.0562161 8.33604 0.0421143 8.7439 0.0421143 12.0023C0.0421143 15.2608 0.0562161 15.6686 0.112441 16.9486C0.168665 18.2238 0.375065 19.1005 0.670472 19.8602C0.97522 20.6666 1.44864 21.3885 2.05813 21.9887C2.65829 22.5982 3.38499 23.0718 4.18203 23.3718C4.94627 23.6672 5.81821 23.8734 7.09361 23.9296C8.3734 23.986 8.78144 23.9999 12.0399 23.9999C15.2983 23.9999 15.7062 23.986 16.9862 23.9296C18.2614 23.8734 19.1381 23.6672 19.8976 23.3718C21.5105 22.7482 22.7857 21.4729 23.4093 19.8602C23.7045 19.096 23.9109 18.2238 23.9672 16.9486C24.0234 15.6686 24.0375 15.2608 24.0375 12.0023C24.0375 8.7439 24.0327 8.33604 23.9765 7.05607ZM21.8152 16.8549C21.7636 18.027 21.5667 18.6599 21.4026 19.0819C20.9994 20.1274 20.1695 20.9572 19.124 21.3605C18.702 21.5246 18.0645 21.7215 16.897 21.7729C15.6311 21.8293 15.2515 21.8433 12.0492 21.8433C8.847 21.8433 8.46259 21.8293 7.20129 21.7729C6.02919 21.7215 5.39625 21.5246 4.9743 21.3605C4.45399 21.1682 3.98039 20.8634 3.59597 20.4649C3.19746 20.0758 2.89271 19.6069 2.70041 19.0866C2.53632 18.6647 2.33944 18.027 2.28798 16.8596C2.23157 15.5937 2.21765 15.2139 2.21765 12.0117C2.21765 8.80946 2.23157 8.42505 2.28798 7.16394C2.33944 5.99183 2.53632 5.3589 2.70041 4.93694C2.89271 4.41645 3.19746 3.94303 3.60073 3.55843C3.98973 3.15992 4.45857 2.85517 4.97906 2.66306C5.40101 2.49896 6.03871 2.30209 7.20606 2.25044C8.47193 2.19422 8.85176 2.18011 12.0538 2.18011C15.2608 2.18011 15.6405 2.19422 16.9017 2.25044C18.0739 2.30209 18.7068 2.49896 19.1287 2.66306C19.649 2.85517 20.1227 3.15992 20.5071 3.55843C20.9056 3.94761 21.2103 4.41645 21.4026 4.93694C21.5667 5.3589 21.7636 5.99641 21.8152 7.16394C21.8715 8.42981 21.8856 8.80946 21.8856 12.0117C21.8856 15.2139 21.8715 15.589 21.8152 16.8549Z" fill="black"/>
<path d="M12.0445 5.83716C8.64086 5.83716 5.87927 8.59856 5.87927 12.0024C5.87927 15.4063 8.64086 18.1677 12.0445 18.1677C15.4484 18.1677 18.2098 15.4063 18.2098 12.0024C18.2098 8.59856 15.4484 5.83716 12.0445 5.83716ZM12.0445 16.0017C9.8364 16.0017 8.04528 14.2107 8.04528 12.0024C8.04528 9.79411 9.8364 8.00317 12.0445 8.00317C14.2529 8.00317 16.0438 9.79411 16.0438 12.0024C16.0438 14.2107 14.2529 16.0017 12.0445 16.0017Z" fill="black"/>
<path d="M19.8931 5.59336C19.8931 6.3882 19.2486 7.03267 18.4536 7.03267C17.6588 7.03267 17.0143 6.3882 17.0143 5.59336C17.0143 4.79835 17.6588 4.15405 18.4536 4.15405C19.2486 4.15405 19.8931 4.79835 19.8931 5.59336Z" fill="black"/>
</g>
<defs>
<clipPath id="clip0">
<rect width="24" height="24" fill="white"/>
</clipPath>
</defs>
</svg>
